<mxfile host="Electron" modified="2024-07-13T09:10:37.575Z" agent="Mozilla/5.0 (Windows NT 10.0; Win64; x64) AppleWebKit/537.36 (KHTML, like Gecko) draw.io/24.6.4 Chrome/124.0.6367.207 Electron/30.0.6 Safari/537.36" etag="bUqmoYXuSGAX8a1dUEIZ" version="24.6.4" type="device">
  <diagram name="Page-1" id="uF7MRl9kktcTlbCIKrxW">
    <mxGraphModel dx="2100" dy="2342" grid="1" gridSize="10" guides="1" tooltips="1" connect="1" arrows="1" fold="1" page="1" pageScale="1" pageWidth="850" pageHeight="1100" math="0" shadow="0">
      <root>
        <mxCell id="0" />
        <mxCell id="1" parent="0" />
        <mxCell id="CoDhNpn2z_PDMj0RKJk9-30" style="edgeStyle=orthogonalEdgeStyle;rounded=0;orthogonalLoop=1;jettySize=auto;html=1;exitX=0.5;exitY=1;exitDx=0;exitDy=0;" edge="1" parent="1" source="CoDhNpn2z_PDMj0RKJk9-1" target="CoDhNpn2z_PDMj0RKJk9-2">
          <mxGeometry relative="1" as="geometry" />
        </mxCell>
        <mxCell id="CoDhNpn2z_PDMj0RKJk9-1" value="Room" style="rounded=0;whiteSpace=wrap;html=1;" vertex="1" parent="1">
          <mxGeometry x="120" y="60" width="120" height="60" as="geometry" />
        </mxCell>
        <mxCell id="CoDhNpn2z_PDMj0RKJk9-2" value="Floor" style="rounded=0;whiteSpace=wrap;html=1;" vertex="1" parent="1">
          <mxGeometry x="120" y="190" width="120" height="60" as="geometry" />
        </mxCell>
        <mxCell id="CoDhNpn2z_PDMj0RKJk9-31" style="edgeStyle=orthogonalEdgeStyle;rounded=0;orthogonalLoop=1;jettySize=auto;html=1;exitX=0.5;exitY=1;exitDx=0;exitDy=0;entryX=0.5;entryY=0;entryDx=0;entryDy=0;" edge="1" parent="1" source="CoDhNpn2z_PDMj0RKJk9-3" target="CoDhNpn2z_PDMj0RKJk9-5">
          <mxGeometry relative="1" as="geometry" />
        </mxCell>
        <mxCell id="CoDhNpn2z_PDMj0RKJk9-3" value="Guest" style="rounded=0;whiteSpace=wrap;html=1;" vertex="1" parent="1">
          <mxGeometry x="880" y="540" width="120" height="60" as="geometry" />
        </mxCell>
        <mxCell id="CoDhNpn2z_PDMj0RKJk9-4" value="Service" style="rounded=0;whiteSpace=wrap;html=1;" vertex="1" parent="1">
          <mxGeometry x="70" y="1030" width="120" height="60" as="geometry" />
        </mxCell>
        <mxCell id="CoDhNpn2z_PDMj0RKJk9-60" style="edgeStyle=orthogonalEdgeStyle;rounded=0;orthogonalLoop=1;jettySize=auto;html=1;exitX=0.5;exitY=1;exitDx=0;exitDy=0;entryX=0;entryY=0.25;entryDx=0;entryDy=0;" edge="1" parent="1" source="CoDhNpn2z_PDMj0RKJk9-5" target="CoDhNpn2z_PDMj0RKJk9-1">
          <mxGeometry relative="1" as="geometry">
            <Array as="points">
              <mxPoint x="150" y="900" />
              <mxPoint x="80" y="900" />
              <mxPoint x="80" y="75" />
            </Array>
          </mxGeometry>
        </mxCell>
        <mxCell id="CoDhNpn2z_PDMj0RKJk9-63" style="edgeStyle=orthogonalEdgeStyle;rounded=0;orthogonalLoop=1;jettySize=auto;html=1;exitX=0.75;exitY=1;exitDx=0;exitDy=0;entryX=0.5;entryY=0;entryDx=0;entryDy=0;" edge="1" parent="1" source="CoDhNpn2z_PDMj0RKJk9-5" target="CoDhNpn2z_PDMj0RKJk9-6">
          <mxGeometry relative="1" as="geometry" />
        </mxCell>
        <mxCell id="CoDhNpn2z_PDMj0RKJk9-5" value="Invoice" style="rounded=0;whiteSpace=wrap;html=1;" vertex="1" parent="1">
          <mxGeometry x="120" y="470" width="120" height="60" as="geometry" />
        </mxCell>
        <mxCell id="CoDhNpn2z_PDMj0RKJk9-64" style="edgeStyle=orthogonalEdgeStyle;rounded=0;orthogonalLoop=1;jettySize=auto;html=1;exitX=0.5;exitY=1;exitDx=0;exitDy=0;entryX=0.5;entryY=0;entryDx=0;entryDy=0;" edge="1" parent="1" source="CoDhNpn2z_PDMj0RKJk9-6" target="CoDhNpn2z_PDMj0RKJk9-4">
          <mxGeometry relative="1" as="geometry" />
        </mxCell>
        <mxCell id="CoDhNpn2z_PDMj0RKJk9-6" value="Room Service" style="rounded=0;whiteSpace=wrap;html=1;" vertex="1" parent="1">
          <mxGeometry x="180" y="850" width="120" height="60" as="geometry" />
        </mxCell>
        <mxCell id="CoDhNpn2z_PDMj0RKJk9-38" style="edgeStyle=orthogonalEdgeStyle;rounded=0;orthogonalLoop=1;jettySize=auto;html=1;exitX=0;exitY=0.5;exitDx=0;exitDy=0;entryX=1;entryY=0.5;entryDx=0;entryDy=0;" edge="1" parent="1" source="CoDhNpn2z_PDMj0RKJk9-7" target="CoDhNpn2z_PDMj0RKJk9-2">
          <mxGeometry relative="1" as="geometry" />
        </mxCell>
        <mxCell id="CoDhNpn2z_PDMj0RKJk9-7" value="Floor Code" style="ellipse;whiteSpace=wrap;html=1;" vertex="1" parent="1">
          <mxGeometry x="380" y="350" width="120" height="80" as="geometry" />
        </mxCell>
        <mxCell id="CoDhNpn2z_PDMj0RKJk9-37" style="edgeStyle=orthogonalEdgeStyle;rounded=0;orthogonalLoop=1;jettySize=auto;html=1;exitX=0;exitY=0.5;exitDx=0;exitDy=0;entryX=1;entryY=0.5;entryDx=0;entryDy=0;" edge="1" parent="1" source="CoDhNpn2z_PDMj0RKJk9-8" target="CoDhNpn2z_PDMj0RKJk9-2">
          <mxGeometry relative="1" as="geometry" />
        </mxCell>
        <mxCell id="CoDhNpn2z_PDMj0RKJk9-8" value="Price in week" style="ellipse;whiteSpace=wrap;html=1;" vertex="1" parent="1">
          <mxGeometry x="470" y="200" width="120" height="80" as="geometry" />
        </mxCell>
        <mxCell id="CoDhNpn2z_PDMj0RKJk9-34" style="edgeStyle=orthogonalEdgeStyle;rounded=0;orthogonalLoop=1;jettySize=auto;html=1;exitX=0;exitY=0.5;exitDx=0;exitDy=0;" edge="1" parent="1" source="CoDhNpn2z_PDMj0RKJk9-9">
          <mxGeometry relative="1" as="geometry">
            <mxPoint x="240" y="90" as="targetPoint" />
          </mxGeometry>
        </mxCell>
        <mxCell id="CoDhNpn2z_PDMj0RKJk9-9" value="Price in day" style="ellipse;whiteSpace=wrap;html=1;" vertex="1" parent="1">
          <mxGeometry x="700" y="50" width="120" height="80" as="geometry" />
        </mxCell>
        <mxCell id="CoDhNpn2z_PDMj0RKJk9-33" style="edgeStyle=orthogonalEdgeStyle;rounded=0;orthogonalLoop=1;jettySize=auto;html=1;exitX=0;exitY=0.5;exitDx=0;exitDy=0;entryX=1;entryY=0.5;entryDx=0;entryDy=0;" edge="1" parent="1" source="CoDhNpn2z_PDMj0RKJk9-10" target="CoDhNpn2z_PDMj0RKJk9-1">
          <mxGeometry relative="1" as="geometry" />
        </mxCell>
        <mxCell id="CoDhNpn2z_PDMj0RKJk9-10" value="Floor Code" style="ellipse;whiteSpace=wrap;html=1;" vertex="1" parent="1">
          <mxGeometry x="305" y="110" width="120" height="80" as="geometry" />
        </mxCell>
        <mxCell id="CoDhNpn2z_PDMj0RKJk9-35" style="edgeStyle=orthogonalEdgeStyle;rounded=0;orthogonalLoop=1;jettySize=auto;html=1;exitX=0;exitY=0.5;exitDx=0;exitDy=0;entryX=1;entryY=0.5;entryDx=0;entryDy=0;" edge="1" parent="1" source="CoDhNpn2z_PDMj0RKJk9-11" target="CoDhNpn2z_PDMj0RKJk9-1">
          <mxGeometry relative="1" as="geometry">
            <Array as="points">
              <mxPoint x="440" y="170" />
              <mxPoint x="440" y="90" />
            </Array>
          </mxGeometry>
        </mxCell>
        <mxCell id="CoDhNpn2z_PDMj0RKJk9-11" value="Room Name" style="ellipse;whiteSpace=wrap;html=1;" vertex="1" parent="1">
          <mxGeometry x="580" y="130" width="120" height="80" as="geometry" />
        </mxCell>
        <mxCell id="CoDhNpn2z_PDMj0RKJk9-36" style="edgeStyle=orthogonalEdgeStyle;rounded=0;orthogonalLoop=1;jettySize=auto;html=1;exitX=0;exitY=0.5;exitDx=0;exitDy=0;entryX=1;entryY=0.5;entryDx=0;entryDy=0;" edge="1" parent="1" source="CoDhNpn2z_PDMj0RKJk9-12" target="CoDhNpn2z_PDMj0RKJk9-1">
          <mxGeometry relative="1" as="geometry" />
        </mxCell>
        <mxCell id="CoDhNpn2z_PDMj0RKJk9-12" value="RoomCode" style="ellipse;whiteSpace=wrap;html=1;" vertex="1" parent="1">
          <mxGeometry x="1150" y="100" width="120" height="80" as="geometry" />
        </mxCell>
        <mxCell id="CoDhNpn2z_PDMj0RKJk9-41" style="edgeStyle=orthogonalEdgeStyle;rounded=0;orthogonalLoop=1;jettySize=auto;html=1;exitX=0;exitY=0.5;exitDx=0;exitDy=0;entryX=1;entryY=0.5;entryDx=0;entryDy=0;" edge="1" parent="1" source="CoDhNpn2z_PDMj0RKJk9-13" target="CoDhNpn2z_PDMj0RKJk9-3">
          <mxGeometry relative="1" as="geometry" />
        </mxCell>
        <mxCell id="CoDhNpn2z_PDMj0RKJk9-13" value="Identity card number" style="ellipse;whiteSpace=wrap;html=1;" vertex="1" parent="1">
          <mxGeometry x="1050" y="430" width="120" height="80" as="geometry" />
        </mxCell>
        <mxCell id="CoDhNpn2z_PDMj0RKJk9-39" style="edgeStyle=orthogonalEdgeStyle;rounded=0;orthogonalLoop=1;jettySize=auto;html=1;exitX=0;exitY=0.5;exitDx=0;exitDy=0;entryX=1;entryY=0.5;entryDx=0;entryDy=0;" edge="1" parent="1" source="CoDhNpn2z_PDMj0RKJk9-14" target="CoDhNpn2z_PDMj0RKJk9-2">
          <mxGeometry relative="1" as="geometry" />
        </mxCell>
        <mxCell id="CoDhNpn2z_PDMj0RKJk9-14" value="Floor Name" style="ellipse;whiteSpace=wrap;html=1;" vertex="1" parent="1">
          <mxGeometry x="500" y="290" width="120" height="80" as="geometry" />
        </mxCell>
        <mxCell id="CoDhNpn2z_PDMj0RKJk9-45" style="edgeStyle=orthogonalEdgeStyle;rounded=0;orthogonalLoop=1;jettySize=auto;html=1;exitX=0;exitY=0.5;exitDx=0;exitDy=0;entryX=1;entryY=0.5;entryDx=0;entryDy=0;" edge="1" parent="1" source="CoDhNpn2z_PDMj0RKJk9-15" target="CoDhNpn2z_PDMj0RKJk9-5">
          <mxGeometry relative="1" as="geometry" />
        </mxCell>
        <mxCell id="CoDhNpn2z_PDMj0RKJk9-15" value="ServiceCode" style="ellipse;whiteSpace=wrap;html=1;" vertex="1" parent="1">
          <mxGeometry x="360" y="490" width="120" height="80" as="geometry" />
        </mxCell>
        <mxCell id="CoDhNpn2z_PDMj0RKJk9-43" style="edgeStyle=orthogonalEdgeStyle;rounded=0;orthogonalLoop=1;jettySize=auto;html=1;entryX=1;entryY=0.5;entryDx=0;entryDy=0;" edge="1" parent="1" source="CoDhNpn2z_PDMj0RKJk9-16" target="CoDhNpn2z_PDMj0RKJk9-3">
          <mxGeometry relative="1" as="geometry" />
        </mxCell>
        <mxCell id="CoDhNpn2z_PDMj0RKJk9-16" value="Number phone" style="ellipse;whiteSpace=wrap;html=1;" vertex="1" parent="1">
          <mxGeometry x="1060" y="660" width="120" height="80" as="geometry" />
        </mxCell>
        <mxCell id="CoDhNpn2z_PDMj0RKJk9-42" style="edgeStyle=orthogonalEdgeStyle;rounded=0;orthogonalLoop=1;jettySize=auto;html=1;exitX=0;exitY=0.5;exitDx=0;exitDy=0;entryX=1;entryY=0.5;entryDx=0;entryDy=0;" edge="1" parent="1" source="CoDhNpn2z_PDMj0RKJk9-17" target="CoDhNpn2z_PDMj0RKJk9-3">
          <mxGeometry relative="1" as="geometry" />
        </mxCell>
        <mxCell id="CoDhNpn2z_PDMj0RKJk9-17" value="Full Name" style="ellipse;whiteSpace=wrap;html=1;" vertex="1" parent="1">
          <mxGeometry x="1090" y="540" width="120" height="80" as="geometry" />
        </mxCell>
        <mxCell id="CoDhNpn2z_PDMj0RKJk9-50" style="edgeStyle=orthogonalEdgeStyle;rounded=0;orthogonalLoop=1;jettySize=auto;html=1;exitX=0;exitY=0.5;exitDx=0;exitDy=0;entryX=1;entryY=0.5;entryDx=0;entryDy=0;" edge="1" parent="1" source="CoDhNpn2z_PDMj0RKJk9-18" target="CoDhNpn2z_PDMj0RKJk9-6">
          <mxGeometry relative="1" as="geometry" />
        </mxCell>
        <mxCell id="CoDhNpn2z_PDMj0RKJk9-18" value="Invoice Code" style="ellipse;whiteSpace=wrap;html=1;" vertex="1" parent="1">
          <mxGeometry x="510" y="900" width="120" height="80" as="geometry" />
        </mxCell>
        <mxCell id="CoDhNpn2z_PDMj0RKJk9-49" style="edgeStyle=orthogonalEdgeStyle;rounded=0;orthogonalLoop=1;jettySize=auto;html=1;exitX=0;exitY=0.5;exitDx=0;exitDy=0;entryX=1;entryY=0.5;entryDx=0;entryDy=0;" edge="1" parent="1" source="CoDhNpn2z_PDMj0RKJk9-19" target="CoDhNpn2z_PDMj0RKJk9-5">
          <mxGeometry relative="1" as="geometry" />
        </mxCell>
        <mxCell id="CoDhNpn2z_PDMj0RKJk9-19" value="Amount" style="ellipse;whiteSpace=wrap;html=1;" vertex="1" parent="1">
          <mxGeometry x="320" y="710" width="120" height="80" as="geometry" />
        </mxCell>
        <mxCell id="CoDhNpn2z_PDMj0RKJk9-48" style="edgeStyle=orthogonalEdgeStyle;rounded=0;orthogonalLoop=1;jettySize=auto;html=1;exitX=0;exitY=0.5;exitDx=0;exitDy=0;entryX=1;entryY=0.5;entryDx=0;entryDy=0;" edge="1" parent="1" source="CoDhNpn2z_PDMj0RKJk9-20" target="CoDhNpn2z_PDMj0RKJk9-5">
          <mxGeometry relative="1" as="geometry">
            <mxPoint x="210" y="850" as="targetPoint" />
          </mxGeometry>
        </mxCell>
        <mxCell id="CoDhNpn2z_PDMj0RKJk9-20" value="ServiceName" style="ellipse;whiteSpace=wrap;html=1;" vertex="1" parent="1">
          <mxGeometry x="380" y="590" width="120" height="80" as="geometry" />
        </mxCell>
        <mxCell id="CoDhNpn2z_PDMj0RKJk9-54" style="edgeStyle=orthogonalEdgeStyle;rounded=0;orthogonalLoop=1;jettySize=auto;html=1;exitX=0;exitY=0.5;exitDx=0;exitDy=0;entryX=1;entryY=0.5;entryDx=0;entryDy=0;" edge="1" parent="1" source="CoDhNpn2z_PDMj0RKJk9-21" target="CoDhNpn2z_PDMj0RKJk9-6">
          <mxGeometry relative="1" as="geometry" />
        </mxCell>
        <mxCell id="CoDhNpn2z_PDMj0RKJk9-21" value="Number of Day Stay" style="ellipse;whiteSpace=wrap;html=1;" vertex="1" parent="1">
          <mxGeometry x="440" y="1070" width="120" height="80" as="geometry" />
        </mxCell>
        <mxCell id="CoDhNpn2z_PDMj0RKJk9-72" style="edgeStyle=orthogonalEdgeStyle;rounded=0;orthogonalLoop=1;jettySize=auto;html=1;entryX=1;entryY=0.5;entryDx=0;entryDy=0;" edge="1" parent="1" source="CoDhNpn2z_PDMj0RKJk9-22" target="CoDhNpn2z_PDMj0RKJk9-6">
          <mxGeometry relative="1" as="geometry" />
        </mxCell>
        <mxCell id="CoDhNpn2z_PDMj0RKJk9-22" value="Room Code" style="ellipse;whiteSpace=wrap;html=1;" vertex="1" parent="1">
          <mxGeometry x="1060" y="790" width="120" height="80" as="geometry" />
        </mxCell>
        <mxCell id="CoDhNpn2z_PDMj0RKJk9-68" style="edgeStyle=orthogonalEdgeStyle;rounded=0;orthogonalLoop=1;jettySize=auto;html=1;exitX=0;exitY=0.5;exitDx=0;exitDy=0;" edge="1" parent="1" source="CoDhNpn2z_PDMj0RKJk9-23">
          <mxGeometry relative="1" as="geometry">
            <mxPoint x="290" y="880.3846153846152" as="targetPoint" />
          </mxGeometry>
        </mxCell>
        <mxCell id="CoDhNpn2z_PDMj0RKJk9-23" value="Full Name" style="ellipse;whiteSpace=wrap;html=1;" vertex="1" parent="1">
          <mxGeometry x="750" y="840" width="120" height="80" as="geometry" />
        </mxCell>
        <mxCell id="CoDhNpn2z_PDMj0RKJk9-67" style="edgeStyle=orthogonalEdgeStyle;rounded=0;orthogonalLoop=1;jettySize=auto;html=1;exitX=0;exitY=0.5;exitDx=0;exitDy=0;entryX=1;entryY=0.5;entryDx=0;entryDy=0;" edge="1" parent="1" source="CoDhNpn2z_PDMj0RKJk9-24" target="CoDhNpn2z_PDMj0RKJk9-6">
          <mxGeometry relative="1" as="geometry" />
        </mxCell>
        <mxCell id="CoDhNpn2z_PDMj0RKJk9-24" value="Identity Card Number&amp;nbsp;" style="ellipse;whiteSpace=wrap;html=1;" vertex="1" parent="1">
          <mxGeometry x="560" y="770" width="120" height="80" as="geometry" />
        </mxCell>
        <mxCell id="CoDhNpn2z_PDMj0RKJk9-69" style="edgeStyle=orthogonalEdgeStyle;rounded=0;orthogonalLoop=1;jettySize=auto;html=1;exitX=0;exitY=0.5;exitDx=0;exitDy=0;entryX=1;entryY=0.5;entryDx=0;entryDy=0;" edge="1" parent="1" source="CoDhNpn2z_PDMj0RKJk9-25" target="CoDhNpn2z_PDMj0RKJk9-6">
          <mxGeometry relative="1" as="geometry" />
        </mxCell>
        <mxCell id="CoDhNpn2z_PDMj0RKJk9-25" value="Departure Date" style="ellipse;whiteSpace=wrap;html=1;" vertex="1" parent="1">
          <mxGeometry x="700" y="960" width="120" height="80" as="geometry" />
        </mxCell>
        <mxCell id="CoDhNpn2z_PDMj0RKJk9-71" style="edgeStyle=orthogonalEdgeStyle;rounded=0;orthogonalLoop=1;jettySize=auto;html=1;exitX=0;exitY=0.5;exitDx=0;exitDy=0;entryX=1;entryY=0.5;entryDx=0;entryDy=0;" edge="1" parent="1" source="CoDhNpn2z_PDMj0RKJk9-26" target="CoDhNpn2z_PDMj0RKJk9-6">
          <mxGeometry relative="1" as="geometry" />
        </mxCell>
        <mxCell id="CoDhNpn2z_PDMj0RKJk9-26" value="Arrival Date" style="ellipse;whiteSpace=wrap;html=1;" vertex="1" parent="1">
          <mxGeometry x="590" y="1020" width="120" height="80" as="geometry" />
        </mxCell>
        <mxCell id="CoDhNpn2z_PDMj0RKJk9-58" style="edgeStyle=orthogonalEdgeStyle;rounded=0;orthogonalLoop=1;jettySize=auto;html=1;exitX=0;exitY=0.5;exitDx=0;exitDy=0;" edge="1" parent="1" source="CoDhNpn2z_PDMj0RKJk9-27" target="CoDhNpn2z_PDMj0RKJk9-4">
          <mxGeometry relative="1" as="geometry" />
        </mxCell>
        <mxCell id="CoDhNpn2z_PDMj0RKJk9-27" value="ServiceCode " style="ellipse;whiteSpace=wrap;html=1;" vertex="1" parent="1">
          <mxGeometry x="520" y="1170" width="120" height="80" as="geometry" />
        </mxCell>
        <mxCell id="CoDhNpn2z_PDMj0RKJk9-57" style="edgeStyle=orthogonalEdgeStyle;rounded=0;orthogonalLoop=1;jettySize=auto;html=1;exitX=0;exitY=0.5;exitDx=0;exitDy=0;entryX=1;entryY=0.5;entryDx=0;entryDy=0;" edge="1" parent="1" source="CoDhNpn2z_PDMj0RKJk9-28" target="CoDhNpn2z_PDMj0RKJk9-4">
          <mxGeometry relative="1" as="geometry" />
        </mxCell>
        <mxCell id="CoDhNpn2z_PDMj0RKJk9-28" value="InvoiceCode" style="ellipse;whiteSpace=wrap;html=1;" vertex="1" parent="1">
          <mxGeometry x="310" y="1230" width="120" height="80" as="geometry" />
        </mxCell>
        <mxCell id="CoDhNpn2z_PDMj0RKJk9-76" style="edgeStyle=orthogonalEdgeStyle;rounded=0;orthogonalLoop=1;jettySize=auto;html=1;exitX=0;exitY=0.5;exitDx=0;exitDy=0;entryX=1;entryY=0.5;entryDx=0;entryDy=0;" edge="1" parent="1" source="CoDhNpn2z_PDMj0RKJk9-29" target="CoDhNpn2z_PDMj0RKJk9-4">
          <mxGeometry relative="1" as="geometry">
            <Array as="points">
              <mxPoint x="190" y="1160" />
            </Array>
          </mxGeometry>
        </mxCell>
        <mxCell id="CoDhNpn2z_PDMj0RKJk9-29" value="Amount" style="ellipse;whiteSpace=wrap;html=1;" vertex="1" parent="1">
          <mxGeometry x="840" y="1120" width="120" height="80" as="geometry" />
        </mxCell>
        <mxCell id="CoDhNpn2z_PDMj0RKJk9-65" value="&lt;b style=&quot;font-size: 27px;&quot;&gt;&lt;span style=&quot;font-size: 27px; line-height: 115%;&quot;&gt;Building an ER model and relational data model for 1 hotel needs to&lt;br style=&quot;font-size: 27px;&quot;&gt;store information&lt;/span&gt;&lt;/b&gt;" style="text;html=1;align=center;verticalAlign=middle;whiteSpace=wrap;rounded=0;fontSize=27;" vertex="1" parent="1">
          <mxGeometry x="50" y="-150" width="1000" height="150" as="geometry" />
        </mxCell>
      </root>
    </mxGraphModel>
  </diagram>
</mxfile>
